<?xml version="1.0" encoding="UTF-8" standalone="no"?>
<!DOCTYPE svg PUBLIC "-//W3C//DTD SVG 1.1//EN" "http://www.w3.org/Graphics/SVG/1.1/DTD/svg11.dtd">
<svg width="100%" height="100%" viewBox="0 0 1000 300" version="1.1" xmlns="http://www.w3.org/2000/svg" xmlns:xlink="http://www.w3.org/1999/xlink" xml:space="preserve" xmlns:serif="http://www.serif.com/" style="fill-rule:evenodd;clip-rule:evenodd;stroke-linejoin:round;stroke-miterlimit:2;">
    <g transform="matrix(1.85376,0,0,1.85376,49.7587,4.04059)">
        <path d="M79.369,0.474C19.321,15.021 15.746,69.412 74.328,143.53C71.825,148.269 26.282,164.976 3.8,152.408C-9.927,102.211 13.143,48.479 79.369,0.474Z" style="fill:rgb(237,28,36);"/>
    </g>
    <g transform="matrix(0.738842,0,0,0.737213,-165.664,-43.0905)">
        <g transform="matrix(2.57836,0,0,2.57836,289.691,53.7293)">
            <path d="M409.587,31.328C409.587,35.399 406.288,38.699 402.217,38.699C398.147,38.699 394.847,35.399 394.847,31.328C394.847,27.258 398.147,23.958 402.217,23.958C406.288,23.958 409.587,27.258 409.587,31.328Z" style="fill:rgb(237,28,36);fill-rule:nonzero;"/>
        </g>
        <g transform="matrix(2.57836,0,0,2.57836,289.691,53.7293)">
            <path d="M78.25,55.883C78.25,52.139 78.106,48.178 77.962,44.577L87.61,44.577L88.186,48.61L88.33,48.61C90.275,46.09 93.371,44.002 96.971,44.002C101.22,44.002 103.668,45.946 104.82,48.61L104.964,48.61C105.828,47.386 107.196,46.09 108.636,45.226C110.077,44.433 111.805,44.002 113.605,44.002C120.589,44.002 123.038,49.69 123.038,57.971L123.038,80.004L111.949,80.004L111.949,59.699C111.949,55.954 111.589,53.219 109.357,53.219C107.988,53.219 107.052,54.011 106.476,55.523C106.333,55.883 106.189,56.819 106.189,57.755L106.189,80.004L95.099,80.004L95.099,58.259C95.099,56.243 95.027,53.219 92.579,53.219C91.499,53.219 90.419,53.867 89.771,55.306C89.554,55.81 89.339,56.819 89.339,57.827L89.339,80.004L78.25,80.004L78.25,55.883Z" style="fill:white;fill-rule:nonzero;"/>
        </g>
        <g transform="matrix(2.57836,0,0,2.57836,289.691,53.7293)">
            <path d="M142.203,63.227C138.962,63.299 135.65,64.596 135.65,68.34C135.65,71.364 137.45,72.516 138.674,72.516C139.827,72.516 141.338,72.012 141.987,70.428C142.131,70.067 142.203,69.563 142.203,68.987L142.203,63.227ZM153.148,71.868C153.148,74.748 153.292,77.557 153.724,80.004L143.787,80.004L143.211,76.619L143.067,76.619C140.979,79.356 138.098,80.58 134.93,80.58C129.313,80.58 125.21,75.901 125.21,69.563C125.21,60.059 133.85,56.315 141.843,56.243L141.843,55.595C141.843,53.65 140.043,52.139 137.162,52.139C134.066,52.139 131.69,52.93 129.386,54.299L127.441,46.882C129.602,45.73 134.066,44.002 139.61,44.002C151.923,44.002 153.148,52.786 153.148,59.627L153.148,71.868Z" style="fill:white;fill-rule:nonzero;"/>
        </g>
        <g transform="matrix(2.57836,0,0,2.57836,289.691,53.7293)">
            <path d="M158.265,70.356C159.705,71.219 162.513,72.227 164.962,72.227C167.05,72.227 168.202,71.508 168.202,69.924C168.202,68.412 167.122,67.619 164.242,66.035C157.977,62.651 157.041,58.691 157.041,55.81C157.041,49.186 161.721,44.002 169.498,44.002C172.522,44.002 174.97,44.65 177.059,45.586L175.331,53.65C173.962,52.93 172.234,52.283 170.29,52.283C168.13,52.283 167.194,53.363 167.194,54.659C167.194,55.883 167.986,56.603 171.226,58.403C176.915,61.499 178.283,65.387 178.283,68.987C178.283,76.332 172.954,80.436 164.962,80.436C161.865,80.436 158.121,79.645 156.465,78.42L158.265,70.356Z" style="fill:white;fill-rule:nonzero;"/>
        </g>
        <g transform="matrix(2.57836,0,0,2.57836,289.691,53.7293)">
            <path d="M194.706,35.001L194.706,44.577L201.69,44.577L201.69,52.354L194.706,52.354L194.706,66.467C194.706,70.356 196.434,71.291 198.234,71.291C199.17,71.291 199.89,71.219 200.826,71.076L200.826,79.789C199.386,80.149 197.082,80.436 194.345,80.436C191.393,80.436 188.801,79.789 186.929,78.133C184.769,76.188 183.545,73.307 183.545,67.475L183.545,52.354L179.44,52.354L179.44,44.577L183.545,44.577L183.545,38.241L194.706,35.001Z" style="fill:white;fill-rule:nonzero;"/>
        </g>
        <g transform="matrix(2.57836,0,0,2.57836,289.691,53.7293)">
            <path d="M220.426,59.195C220.426,55.739 219.85,51.994 216.97,51.994C214.162,51.994 213.154,56.171 213.154,59.195L220.426,59.195ZM213.154,66.899C213.297,70.139 216.034,72.084 220.282,72.084C223.09,72.084 225.539,71.508 227.411,70.932L228.779,78.852C226.187,79.789 222.155,80.436 218.266,80.436C208.113,80.436 202.425,74.317 202.425,63.155C202.425,51.058 209.193,44.002 217.546,44.002C225.323,44.002 230.435,49.33 230.435,61.211C230.435,64.235 230.292,65.819 230.075,66.899L213.154,66.899Z" style="fill:white;fill-rule:nonzero;"/>
        </g>
        <g transform="matrix(2.57836,0,0,2.57836,289.691,53.7293)">
            <path d="M265.865,44.714L268.816,62.355C269.106,64.155 269.393,65.883 269.609,67.684L269.754,67.684C269.969,65.955 270.113,64.227 270.33,62.499L272.705,44.714L283.578,44.714L275.731,74.02C274.219,79.709 271.914,85.828 268.242,90.006C265.002,93.678 261.04,95.334 259.457,95.694L256.289,86.045C257.872,85.614 259.457,84.748 260.824,83.741C262.049,82.805 262.984,81.725 263.705,80.285C263.992,79.782 264.209,79.348 264.209,78.844C264.209,78.412 264.065,77.981 263.922,77.549L253.84,44.714L265.865,44.714Z" style="fill:white;fill-rule:nonzero;"/>
        </g>
        <g transform="matrix(2.57836,0,0,2.57836,289.691,53.7293)">
            <path d="M300.713,63.364C297.473,63.435 294.16,64.731 294.16,68.475C294.16,71.5 295.961,72.653 297.186,72.653C298.338,72.653 299.85,72.149 300.498,70.565C300.641,70.203 300.713,69.7 300.713,69.123L300.713,63.364ZM311.658,72.004C311.658,74.885 311.803,77.692 312.234,80.141L302.297,80.141L301.721,76.756L301.578,76.756C299.49,79.493 296.609,80.717 293.441,80.717C287.824,80.717 283.721,76.035 283.721,69.7C283.721,60.195 292.361,56.451 300.354,56.379L300.354,55.731C300.354,53.786 298.553,52.275 295.674,52.275C292.576,52.275 290.201,53.067 287.897,54.435L285.953,47.018C288.113,45.866 292.576,44.138 298.121,44.138C310.434,44.138 311.658,52.923 311.658,59.763L311.658,72.004Z" style="fill:white;fill-rule:nonzero;"/>
        </g>
        <g transform="matrix(2.57836,0,0,2.57836,289.691,53.7293)">
            <path d="M336.441,79.637C335.578,79.996 333.129,80.573 330.32,80.573C320.816,80.573 314.695,74.379 314.695,62.86C314.695,51.555 321.68,44.282 331.904,44.282C334.281,44.282 336.297,44.786 337.162,45.146L335.865,53.786C335.074,53.571 333.994,53.283 332.553,53.283C328.449,53.283 325.713,56.595 325.713,62.428C325.713,68.043 328.233,71.573 332.338,71.573C333.633,71.573 334.713,71.356 335.65,70.924L336.441,79.637Z" style="fill:white;fill-rule:nonzero;"/>
        </g>
        <g transform="matrix(2.57836,0,0,2.57836,289.691,53.7293)">
            <path d="M385.344,35.137L385.344,44.714L392.328,44.714L392.328,52.491L385.344,52.491L385.344,66.604C385.344,70.493 387.07,71.428 388.871,71.428C389.807,71.428 390.527,71.356 391.463,71.211L391.463,79.924C390.024,80.285 387.719,80.573 384.983,80.573C382.031,80.573 379.44,79.924 377.566,78.268C375.406,76.325 374.182,73.444 374.182,67.612L374.182,52.491L370.078,52.491L370.078,44.714L374.182,44.714L374.182,38.377L385.344,35.137Z" style="fill:white;fill-rule:nonzero;"/>
        </g>
        <g transform="matrix(2.57836,0,0,2.57836,289.691,53.7293)">
            <rect x="396.638" y="44.714" width="11.16" height="35.427" style="fill:white;"/>
        </g>
        <g transform="matrix(2.57836,0,0,2.57836,289.691,53.7293)">
            <path d="M412.709,56.019C412.709,52.275 412.565,48.314 412.422,44.714L421.998,44.714L422.574,48.746L422.719,48.746C424.662,45.938 427.83,44.138 431.504,44.138C438.992,44.138 441.295,50.258 441.295,57.891L441.295,80.141L430.135,80.141L430.135,58.251C430.135,55.803 429.486,53.499 427.254,53.499C426.031,53.499 425.094,54.219 424.447,55.587C424.158,56.235 423.871,57.459 423.871,58.899L423.871,80.141L412.709,80.141L412.709,56.019Z" style="fill:white;fill-rule:nonzero;"/>
        </g>
        <g transform="matrix(2.57836,0,0,2.57836,289.691,53.7293)">
            <path d="M461.973,57.963C461.973,57.027 461.758,56.019 461.541,55.371C461.182,54.219 460.318,53.499 459.381,53.499C456.285,53.499 455.277,57.747 455.277,62.643C455.277,68.188 456.717,71.211 459.166,71.211C460.174,71.211 460.965,70.635 461.469,69.7C461.83,69.051 461.973,68.043 461.973,67.108L461.973,57.963ZM473.063,76.397C473.063,83.309 471.551,87.701 468.455,90.582C465.647,93.102 461.758,94.541 456.068,94.541C452.686,94.541 449.588,94.037 446.781,92.885L448.725,84.389C450.668,85.252 452.828,85.828 455.565,85.828C460.461,85.828 461.973,82.516 461.973,78.196L461.973,76.684L461.83,76.684C460.606,78.701 458.158,79.852 455.637,79.852C446.996,79.852 444.332,70.493 444.332,62.86C444.332,51.626 449.445,44.138 456.572,44.138C458.949,44.138 461.541,45.218 463.053,48.17L463.197,48.17L463.774,44.714L473.422,44.714C473.207,48.314 473.063,52.275 473.063,56.019L473.063,76.397Z" style="fill:white;fill-rule:nonzero;"/>
        </g>
        <g transform="matrix(2.57836,0,0,2.57836,289.691,53.7293)">
            <path d="M233.471,55.883C233.471,52.139 233.327,48.178 233.183,44.577L242.76,44.577L243.336,49.618L243.623,49.618C245.049,46.351 247.21,44.653 249.216,44.158C249.521,45.115 252.841,55.162 252.841,55.162C252.122,55.018 251.401,55.018 250.394,55.018C249.097,55.018 246.359,55.595 245.137,59.051C244.848,59.771 244.633,61.139 244.633,62.723L244.633,80.004L233.471,80.004L233.471,55.883Z" style="fill:white;fill-rule:nonzero;"/>
        </g>
        <g transform="matrix(2.57836,0,0,2.57836,289.691,53.7293)">
            <path d="M358.904,44.138C357.248,44.138 355.449,44.642 354.08,45.434C352.856,46.226 351.848,47.162 350.984,48.386L350.84,48.386L350.84,30.624L339.68,34.036L339.68,80.141L350.84,80.141L350.84,58.539C350.84,57.747 351.129,56.379 351.272,55.875C351.92,54.003 353,53.499 354.152,53.499C356.6,53.499 357.106,56.163 357.106,59.187L357.106,80.141L368.266,80.141L368.266,59.547C368.266,50.546 366.25,44.138 358.904,44.138Z" style="fill:white;fill-rule:nonzero;"/>
        </g>
    </g>
</svg>
