<svg xmlns="http://www.w3.org/2000/svg" viewBox="0 0 660.5 734.87"><defs><style>.cls-1{fill:#d1b7a0}</style></defs><g id="Layer_2" data-name="Layer 2"><g id="Layer_1-2" data-name="Layer 1"><path class="cls-1" d="M0 0v643.23h660.5V0zm649 631.69H11.54V11.54H649z"/><path class="cls-1" d="M316.41 515q-8.91-1.46-13.28-6.64t-5.35-15.88l-.65-15.48V357.92l-6.81 6.81V477l-.65 15.55q-2 19.77-15.18 21.87t-18.43 2.43c-3.48.22-6.64.44-9.46.65v5.18h93.62v-5.18q-2.28-.32-8.59-.65a140.46 140.46 0 01-15.22-1.85M442 286.44v5.19c3 .21 6.32.43 9.89.64a141.61 141.61 0 0114.09 1.79q8.74 1.45 13.12 6.8t5.35 15.71l.65 15.56v103.35h-1.3l-115.96-148.3-55.84 55.9q70.18 89.78 140.35 179.56h39.53V333.42l.65-15.55q1-10.37 5.67-16.36t13.8-7.45q9.07-1.47 14.09-1.79c3.35-.21 6.43-.43 9.24-.64v-5.19zM201.28 106.11v5.19c2.15.21 4.69.38 7.61.48s6.48.44 10.69 1 7.45 2.06 9.72 4.54 3.73 7.29 4.38 14.42l.65 14.9v143.51l-.65 14.9a57.77 57.77 0 01-5 24.47q-5 10.85-19 10.85a47.48 47.48 0 01-11.34-1.13q-4.55-1.14-4.54-4.38 8.1-8.75 16.53-17.49 7.46-9.4 7.45-24.95 0-17.82-11.38-28.84t-30.91-11a39.71 39.71 0 00-28.62 11.67q-12 11.65-12 27.86 0 25.61 19.36 39.86t50 14.25a119.87 119.87 0 0033.3-4.43 118.63 118.63 0 0016.95-6.2l56.85-56.87a63.56 63.56 0 002.74-19V147.26l.65-14.9q1-10.7 4.54-14.58t13.28-5.19l15.23-1.29v-5.19zM565 55.63c-41.33 44.7-83.47 88.61-125.89 132.23S354 274.81 311 317.82 224.65 403.56 181 446 93.52 530.54 48.8 571.86c41.32-44.72 83.45-88.63 125.87-132.25s85.13-86.95 128.17-129.95 86.35-85.73 130-128.15S520.32 97 565 55.63M34.37 719.17c0 8.29-5.21 15.7-15.63 15.7-8.14 0-13.64-3.74-15.26-12l8.66-2c.59 3.37 2.93 5.65 6.16 5.65 5.29 0 6.83-3.82 6.83-10.06V681.6h9.24zm52.32-37.57h8l22.38 51.95H106.5l-4.84-11.89H79.13l-4.69 11.89H64.09zm11.74 32.14l-8-21.14-8.14 21.14zm48.72-32.14h12.26l25.16 38.6h.15v-38.6h9.25v51.95h-11.74l-25.69-39.84h-.14v39.84h-9.25V681.6zm99.5 0h8L277 733.55h-10.54l-4.84-11.89h-22.53l-4.69 11.89h-10.35zm11.74 32.14l-8-21.14-8.14 21.14zm94.73-32.14h12.25l25.17 38.6h.15v-38.6h9.24v51.95h-11.74l-25.68-39.84h-.15v39.84h-9.24V681.6zm99.49 0h8L483 733.55h-10.57l-4.85-11.89h-22.52l-4.7 11.89H430zm11.75 32.14l-8-21.14-8.15 21.14zm48.49-32.14h9.24v51.95h-9.24zm44.91 0h9.25v43.58h22.08v8.37h-31.33V681.6zm87.83 11.15c-2-2.79-5.5-4.11-9.1-4.11-4.25 0-8.51 1.91-8.51 6.68 0 10.42 24.66 4.48 24.66 23 0 11.15-8.81 16.58-19 16.58-6.45 0-12.77-2-17-7l7-6.75a12.26 12.26 0 0010.27 5.43c4.26 0 9.1-2.35 9.1-7.12C643 708 618.3 714.55 618.3 696c0-10.71 9.54-15.7 19.15-15.7 5.43 0 10.86 1.54 14.89 5.35z"/></g></g></svg>