<?xml version="1.0" standalone="no"?>
<!DOCTYPE svg PUBLIC "-//W3C//DTD SVG 1.1//EN" "http://www.w3.org/Graphics/SVG/1.1/DTD/svg11.dtd">
<svg xmlns="http://www.w3.org/2000/svg" xmlns:xlink="http://www.w3.org/1999/xlink" version="1.1" id="Layer_1" x="0px" y="0px" viewBox="0 0 330.67 297.78" style="enable-background:new 0 0 330.67 297.78;" xml:space="preserve" width="330.6700134277344" height="297.7799987792969">
<style type="text/css">
	.st0{clip-path:url(#SVGID_2_);fill:#FFFFFF;}
	.st1{clip-path:url(#SVGID_2_);fill:#212B55;}
	.st2{clip-path:url(#SVGID_2_);fill:#EB578A;}
	.st3{clip-path:url(#SVGID_2_);fill:#F39EB5;}
	.st4{clip-path:url(#SVGID_2_);fill:#D72841;}
</style>
<g>
	<defs>
		<rect id="SVGID_1_" x="-794.67" y="-376.56" width="1920" height="1080"/>
	</defs>
	<clipPath id="SVGID_2_">
		<use xlink:href="#SVGID_1_" style="overflow:visible;"/>
	</clipPath>
	<path class="st0" d="M39.89,285.37l-0.19,0.32c-0.45,0.39-1.55,0.84-2.97,0.84c-3.23,0-4.84-2.39-4.97-5.36   c-2.84,3.23-6.91,5.36-12.08,5.36c-9.69,0-16.34-7.56-16.34-16.93c0-9.43,6.65-16.93,16.34-16.93c5.04,0,9.05,2,11.89,5.1v-4.33   h4.52v25.97c0,2,0.32,3.17,1.49,3.17c0.65,0,0.97-0.32,1.1-0.45l0.32,0.13L39.89,285.37z M32.07,269.61   c0-8.4-5.49-12.79-11.95-12.79c-7.49,0-12.15,5.88-12.15,12.79c0,7.04,4.72,12.79,12.08,12.79   C26.58,282.4,32.07,277.94,32.07,269.61"/>
	<path class="st0" d="M79.3,269.61c0,9.37-6.52,16.93-16.6,16.93c-4.85,0-8.85-2.07-11.63-5.1v14.02h-4.52v-35.66   c0-1.87-0.19-3.17-1.49-3.17c-0.52,0-0.84,0.19-1.1,0.45l-0.32-0.13l-0.9-3.1l0.19-0.32c0.45-0.39,1.42-0.84,3.04-0.84   c3.17,0,4.85,2.26,4.91,5.36c2.84-3.23,6.85-5.36,11.82-5.36C72.77,252.68,79.3,260.24,79.3,269.61 M74.64,269.61   c0-6.98-4.78-12.79-11.95-12.79c-6.72,0-12.14,4.27-12.14,12.79c0,8.53,5.43,12.79,12.14,12.79   C69.86,282.4,74.64,276.65,74.64,269.61"/>
	<path class="st0" d="M83.94,269.61c0-9.56,7.3-16.93,17.12-16.93c9.82,0,17.12,7.37,17.12,16.93c0,9.56-7.3,16.93-17.12,16.93   C91.24,286.53,83.94,279.17,83.94,269.61 M113.53,269.61c0-7.36-5.17-12.79-12.47-12.79c-7.24,0-12.47,5.43-12.47,12.79   c0,7.37,5.17,12.79,12.47,12.79C108.36,282.4,113.53,276.97,113.53,269.61"/>
	<path class="st0" d="M130.77,257.33v18.35c0,4.2,1.94,6.78,5.56,6.78c1.16,0,1.81-0.26,2.71-0.84l0.33,0.19l1.48,3.1l-0.19,0.32   c-1.42,0.97-3.04,1.29-4.65,1.29c-5.94,0-9.75-4.39-9.75-10.79v-18.41h-5.43v-3.88h5.43v-9.69l4.26-0.78l0.26,0.19v10.27h10.14   v3.88H130.77z"/>
	<path class="st0" d="M148.15,270.97c0.58,7.43,6.27,11.43,12.53,11.43c4.07,0,8.85-1.68,11.43-4.97h0.32l2.91,2.46v0.32   c-3.23,4.33-9.3,6.33-14.54,6.33c-9.04,0-17.38-6.07-17.38-16.8c0-9.75,6.85-17.06,16.54-17.06c9.76,0,16.28,7.37,16.28,16.28   c0,0.9-0.07,1.55-0.13,2H148.15z M148.22,267.09h23.32c-0.78-6.85-5.43-10.27-11.43-10.27   C153.77,256.82,149.06,260.56,148.22,267.09"/>
	<path class="st0" d="M212.17,285.37l-0.19,0.32c-0.45,0.32-1.55,0.84-2.91,0.84c-2.97,0-5.04-1.94-6.27-3.42l-7.62-9.24h-7.82   v11.89h-4.52v-37.21c0-1.87-0.19-3.17-1.49-3.17c-0.52,0-0.84,0.19-1.1,0.45l-0.32-0.13l-0.9-3.1l0.19-0.32   c0.45-0.39,1.42-0.84,3.04-0.84c3.42,0,5.1,2.26,5.1,5.43v10.27c2.39-2.91,6.27-4.46,11.11-4.46c7.04,0,11.56,4.26,11.56,10.6   c0,5.17-3.94,9.17-9.5,10.27l5.94,7.24c1.03,1.23,1.81,1.81,2.97,1.81c0.58,0,1.03-0.19,1.42-0.45l0.39,0.13L212.17,285.37z    M187.36,270.06h9.76c4.91,0,8.27-2.91,8.27-6.78c0-3.94-2.78-6.59-7.3-6.59c-7.24,0-10.72,3.94-10.72,9.82V270.06z"/>
	<path class="st0" d="M251.7,285.37l-0.19,0.32c-0.45,0.39-1.55,0.84-2.97,0.84c-3.23,0-4.84-2.39-4.97-5.36   c-2.84,3.23-6.91,5.36-12.08,5.36c-9.69,0-16.34-7.56-16.34-16.93c0-9.43,6.65-16.93,16.34-16.93c5.04,0,9.05,2,11.89,5.1v-4.33   h4.52v25.97c0,2,0.32,3.17,1.49,3.17c0.65,0,0.97-0.32,1.1-0.45l0.32,0.13L251.7,285.37z M243.89,269.61   c0-8.4-5.49-12.79-11.95-12.79c-7.49,0-12.15,5.88-12.15,12.79c0,7.04,4.72,12.79,12.08,12.79   C238.39,282.4,243.89,277.94,243.89,269.61"/>
	<path class="st0" d="M256.92,282.01c0-2.07,1.68-3.75,3.75-3.75c2.07,0,3.75,1.68,3.75,3.75c0,2.07-1.68,3.75-3.75,3.75   C258.6,285.76,256.92,284.08,256.92,282.01"/>
	<path class="st0" d="M303.51,285.37l-0.19,0.32c-0.45,0.39-1.49,0.84-2.97,0.84c-3.62,0-5.23-2.65-5.23-5.75v-14.28   c0-5.94-3.62-9.75-9.37-9.75s-9.88,3.81-9.88,9.75v19.25h-4.52v-37.21c0-1.87-0.19-3.17-1.49-3.17c-0.52,0-0.84,0.19-1.1,0.45   l-0.32-0.13l-0.91-3.1l0.19-0.32c0.45-0.39,1.49-0.84,2.97-0.84c3.55,0,5.17,2.26,5.17,5.43v10.34c2.39-2.84,6.07-4.52,10.59-4.52   c8.2,0,13.24,5.56,13.24,13.37v13.37c0,1.88,0.19,3.17,1.49,3.17c0.52,0,0.84-0.19,1.1-0.45l0.32,0.13L303.51,285.37z"/>
	<path class="st0" d="M327.34,253.91l-1.55,3.49l-0.32,0.13c-0.97-0.64-2.07-0.77-3.36-0.77c-4.72,0-7.69,3.81-7.69,9.75v19.25   h-4.52v-25.97c0-1.87-0.19-3.17-1.49-3.17c-0.52,0-0.84,0.19-1.1,0.45l-0.32-0.13l-0.9-3.1l0.19-0.32   c0.45-0.39,1.42-0.84,3.04-0.84c2.91,0,4.59,1.87,4.84,4.52c1.87-2.84,4.78-4.52,8.66-4.52c1.62,0,3.04,0.32,4.33,0.9   L327.34,253.91z"/>
	<path class="st1" d="M39.89,285.37l-0.19,0.32c-0.45,0.39-1.55,0.84-2.97,0.84c-3.23,0-4.84-2.39-4.97-5.36   c-2.84,3.23-6.91,5.36-12.08,5.36c-9.69,0-16.34-7.56-16.34-16.93c0-9.43,6.65-16.93,16.34-16.93c5.04,0,9.05,2,11.89,5.1v-4.33   h4.52v25.97c0,2,0.32,3.17,1.49,3.17c0.65,0,0.97-0.32,1.1-0.45l0.32,0.13L39.89,285.37z M32.07,269.61   c0-8.4-5.49-12.79-11.95-12.79c-7.49,0-12.15,5.88-12.15,12.79c0,7.04,4.72,12.79,12.08,12.79   C26.58,282.4,32.07,277.94,32.07,269.61"/>
	<path class="st1" d="M79.3,269.61c0,9.37-6.52,16.93-16.6,16.93c-4.85,0-8.85-2.07-11.63-5.1v14.02h-4.52v-35.66   c0-1.87-0.19-3.17-1.49-3.17c-0.52,0-0.84,0.19-1.1,0.45l-0.32-0.13l-0.9-3.1l0.19-0.32c0.45-0.39,1.42-0.84,3.04-0.84   c3.17,0,4.85,2.26,4.91,5.36c2.84-3.23,6.85-5.36,11.82-5.36C72.77,252.68,79.3,260.24,79.3,269.61 M74.64,269.61   c0-6.98-4.78-12.79-11.95-12.79c-6.72,0-12.14,4.27-12.14,12.79c0,8.53,5.43,12.79,12.14,12.79   C69.86,282.4,74.64,276.65,74.64,269.61"/>
	<path class="st1" d="M83.94,269.61c0-9.56,7.3-16.93,17.12-16.93c9.82,0,17.12,7.37,17.12,16.93c0,9.56-7.3,16.93-17.12,16.93   C91.24,286.53,83.94,279.17,83.94,269.61 M113.53,269.61c0-7.36-5.17-12.79-12.47-12.79c-7.24,0-12.47,5.43-12.47,12.79   c0,7.37,5.17,12.79,12.47,12.79C108.36,282.4,113.53,276.97,113.53,269.61"/>
	<path class="st1" d="M130.77,257.33v18.35c0,4.2,1.94,6.78,5.56,6.78c1.16,0,1.81-0.26,2.71-0.84l0.33,0.19l1.48,3.1l-0.19,0.32   c-1.42,0.97-3.04,1.29-4.65,1.29c-5.94,0-9.75-4.39-9.75-10.79v-18.41h-5.43v-3.88h5.43v-9.69l4.26-0.78l0.26,0.19v10.27h10.14   v3.88H130.77z"/>
	<path class="st1" d="M148.15,270.97c0.58,7.43,6.27,11.43,12.53,11.43c4.07,0,8.85-1.68,11.43-4.97h0.32l2.91,2.46v0.32   c-3.23,4.33-9.3,6.33-14.54,6.33c-9.04,0-17.38-6.07-17.38-16.8c0-9.75,6.85-17.06,16.54-17.06c9.76,0,16.28,7.37,16.28,16.28   c0,0.9-0.07,1.55-0.13,2H148.15z M148.22,267.09h23.32c-0.78-6.85-5.43-10.27-11.43-10.27   C153.77,256.82,149.06,260.56,148.22,267.09"/>
	<path class="st1" d="M212.17,285.37l-0.19,0.32c-0.45,0.32-1.55,0.84-2.91,0.84c-2.97,0-5.04-1.94-6.27-3.42l-7.62-9.24h-7.82   v11.89h-4.52v-37.21c0-1.87-0.19-3.17-1.49-3.17c-0.52,0-0.84,0.19-1.1,0.45l-0.32-0.13l-0.9-3.1l0.19-0.32   c0.45-0.39,1.42-0.84,3.04-0.84c3.42,0,5.1,2.26,5.1,5.43v10.27c2.39-2.91,6.27-4.46,11.11-4.46c7.04,0,11.56,4.26,11.56,10.6   c0,5.17-3.94,9.17-9.5,10.27l5.94,7.24c1.03,1.23,1.81,1.81,2.97,1.81c0.58,0,1.03-0.19,1.42-0.45l0.39,0.13L212.17,285.37z    M187.36,270.06h9.76c4.91,0,8.27-2.91,8.27-6.78c0-3.94-2.78-6.59-7.3-6.59c-7.24,0-10.72,3.94-10.72,9.82V270.06z"/>
	<path class="st1" d="M251.7,285.37l-0.19,0.32c-0.45,0.39-1.55,0.84-2.97,0.84c-3.23,0-4.84-2.39-4.97-5.36   c-2.84,3.23-6.91,5.36-12.08,5.36c-9.69,0-16.34-7.56-16.34-16.93c0-9.43,6.65-16.93,16.34-16.93c5.04,0,9.05,2,11.89,5.1v-4.33   h4.52v25.97c0,2,0.32,3.17,1.49,3.17c0.65,0,0.97-0.32,1.1-0.45l0.32,0.13L251.7,285.37z M243.89,269.61   c0-8.4-5.49-12.79-11.95-12.79c-7.49,0-12.15,5.88-12.15,12.79c0,7.04,4.72,12.79,12.08,12.79   C238.39,282.4,243.89,277.94,243.89,269.61"/>
	<path class="st1" d="M256.92,282.01c0-2.07,1.68-3.75,3.75-3.75c2.07,0,3.75,1.68,3.75,3.75c0,2.07-1.68,3.75-3.75,3.75   C258.6,285.76,256.92,284.08,256.92,282.01"/>
	<path class="st1" d="M303.51,285.37l-0.19,0.32c-0.45,0.39-1.49,0.84-2.97,0.84c-3.62,0-5.23-2.65-5.23-5.75v-14.28   c0-5.94-3.62-9.75-9.37-9.75s-9.88,3.81-9.88,9.75v19.25h-4.52v-37.21c0-1.87-0.19-3.17-1.49-3.17c-0.52,0-0.84,0.19-1.1,0.45   l-0.32-0.13l-0.91-3.1l0.19-0.32c0.45-0.39,1.49-0.84,2.97-0.84c3.55,0,5.17,2.26,5.17,5.43v10.34c2.39-2.84,6.07-4.52,10.59-4.52   c8.2,0,13.24,5.56,13.24,13.37v13.37c0,1.88,0.19,3.17,1.49,3.17c0.52,0,0.84-0.19,1.1-0.45l0.32,0.13L303.51,285.37z"/>
	<path class="st1" d="M327.34,253.91l-1.55,3.49l-0.32,0.13c-0.97-0.64-2.07-0.77-3.36-0.77c-4.72,0-7.69,3.81-7.69,9.75v19.25   h-4.52v-25.97c0-1.87-0.19-3.17-1.49-3.17c-0.52,0-0.84,0.19-1.1,0.45l-0.32-0.13l-0.9-3.1l0.19-0.32   c0.45-0.39,1.42-0.84,3.04-0.84c2.91,0,4.59,1.87,4.84,4.52c1.87-2.84,4.78-4.52,8.66-4.52c1.62,0,3.04,0.32,4.33,0.9   L327.34,253.91z"/>
	<path class="st2" d="M248.65,67.98c-6.9-6.62-17.45-11.51-30.81-14.46c-2.95-13.36-7.84-23.91-14.46-30.81   c-26.37-27.46-53.98-21.03-71.04-5.85c-13.68,12.16-15.41,31.06-15.99,37.27l-0.25,2.69l-2.68,0.25   c-5.95,0.55-23.55,2.18-35.71,14.34c-0.53,0.53-1.05,1.08-1.55,1.65c-15.18,17.05-21.61,44.67,5.85,71.04   c6.9,6.62,17.45,11.51,30.81,14.46c2.95,13.36,7.84,23.91,14.46,30.81c26.36,27.46,53.98,21.03,71.04,5.85   c13.67-12.16,15.41-31.06,15.99-37.27l0.25-2.68l2.69-0.25c5.95-0.55,23.55-2.18,35.71-14.34c0.53-0.53,1.05-1.08,1.56-1.65   C269.68,121.97,276.12,94.35,248.65,67.98"/>
	<path class="st3" d="M119.69,60.4c13.19-5.07,37.94-10.1,64.53-10.14c12.52-0.02,23.82,1.11,33.62,3.27   c-2.95-13.36-7.84-23.91-14.46-30.81c-26.37-27.47-53.98-21.03-71.04-5.85c-13.68,12.16-15.41,31.06-15.99,37.26l-0.25,2.68   l-2.68,0.25c-5.95,0.55-23.55,2.18-35.71,14.34c-0.53,0.53-1.05,1.08-1.55,1.65c-15.18,17.05-21.61,44.67,5.85,71.04   c6.9,6.62,17.45,11.51,30.81,14.46c-2.17-9.8-3.29-21.1-3.27-33.62C109.59,98.33,114.62,73.58,119.69,60.4"/>
	<path class="st4" d="M248.65,67.98c-6.9-6.62-17.45-11.51-30.81-14.46c2.16,9.8,3.29,21.1,3.27,33.62   c-0.04,26.6-5.08,51.35-10.14,64.53c-13.19,5.07-37.94,10.1-64.53,10.14c-12.52,0.02-23.82-1.11-33.62-3.27   c2.95,13.36,7.84,23.91,14.46,30.81c26.36,27.46,53.98,21.03,71.04,5.85c13.67-12.16,15.41-31.06,15.99-37.27l0.25-2.68l2.68-0.25   c5.95-0.55,23.55-2.18,35.71-14.34c0.53-0.53,1.05-1.08,1.56-1.65C269.68,121.97,276.12,94.35,248.65,67.98"/>
</g>
</svg>