<svg fill="none" height="95" viewBox="0 0 323 95" width="323" xmlns="http://www.w3.org/2000/svg"><g fill="#353535"><path d="m197.36 66.2779c-1.302 0-2.281-.1779-2.944-.5321-.665-.3505-1.218-1.0837-1.66-2.2031l-.975-2.5127c-1.153.9699-2.258 1.8223-3.32 2.559-1.061.7332-2.161 1.3596-3.298 1.8739-1.138.5143-2.347.8969-3.632 1.1478-1.283.2509-2.706.3755-4.272.3755-2.097 0-4-.2741-5.709-.8204-1.714-.5445-3.166-1.3489-4.36-2.4095-1.197-1.0624-2.119-2.3811-2.767-3.9595-.65-1.5785-.976-3.399-.976-5.4633 0-1.6212.413-3.2904 1.238-4.9988.828-1.7119 2.259-3.2655 4.295-4.6695 2.037-1.4023 4.783-2.5715 8.235-3.5182 3.453-.9432 7.805-1.4148 13.06-1.4148v-1.9593c0-2.6996-.554-4.65-1.662-5.8529-1.106-1.2012-2.676-1.8027-4.713-1.8027-1.624 0-2.953.1761-3.986.5285-1.031.3524-1.954.7492-2.767 1.1905-.809.4414-1.601.8364-2.367 1.1888-.769.3523-1.681.5303-2.743.5303-.947 0-1.749-.2278-2.415-.6834-.665-.4555-1.188-1.0214-1.572-1.6994l-2.478-4.2763c2.772-2.4398 5.847-4.255 9.229-5.4455 3.38-1.1905 7-1.7867 10.868-1.7867 2.774 0 5.276.4485 7.504 1.3454 2.227.8969 4.118 2.1461 5.667 3.7477s2.737 3.5058 3.564 5.7089c.825 2.2048 1.24 4.6161 1.24 7.2339v28.5744h-6.284zm-15.761-8.3354c1.769 0 3.32-.3097 4.649-.9272s2.671-1.6158 4.029-3.0003v-6.2623c-2.745 0-5.003.1797-6.773.5339-1.771.3541-3.173.8026-4.206 1.3346-1.033.5357-1.749 1.1443-2.148 1.8223-.398.6834-.596 1.4254-.596 2.2245 0 1.5731.427 2.6782 1.284 3.3153.853.6388 2.107.9592 3.761.9592z"/><path d="m241.185 66.2779c-.856 0-1.57-.1904-2.147-.573-.576-.3826-.981-.9556-1.219-1.719l-1.061-3.4844c-.916.9698-1.876 1.8507-2.878 2.6444s-2.087 1.477-3.253 2.0483c-1.165.5748-2.419 1.0143-3.761 1.324-1.346.3096-2.798.4644-4.361.4644-2.391 0-4.604-.5303-6.641-1.5891-2.037-1.0589-3.793-2.5857-5.269-4.5859-1.475-1.9985-2.633-4.4454-3.475-7.3425-.839-2.8953-1.261-6.1946-1.261-9.8997 0-3.4096.472-6.5772 1.417-9.5028s2.28-5.4526 4.007-7.5845c1.726-2.1319 3.8-3.8012 6.219-5.0059 2.419-1.2048 5.092-1.8081 8.013-1.8081 2.36 0 4.359.3471 5.996 1.0375 1.64.6905 3.123 1.5945 4.448 2.7103v-23.150303h13.727v66.014503h-8.501zm-13.901-9.7893c1.004 0 1.91-.0961 2.723-.2865.811-.1905 1.556-.4627 2.235-.8169.679-.3523 1.32-.7919 1.926-1.3222.603-.5285 1.204-1.1478 1.791-1.8507v-19.4061c-1.061-1.146-2.192-1.9469-3.385-2.4042-1.197-.4556-2.457-.6833-3.786-.6833-1.268 0-2.435.2509-3.496.7491-1.063.5019-1.987 1.3027-2.768 2.4042-.782 1.1034-1.395 2.5377-1.836 4.3012-.443 1.7636-.665 3.8955-.665 6.394 0 2.4113.179 4.4418.533 6.0861.353 1.6443.846 2.9754 1.482 3.9898.633 1.0143 1.394 1.7421 2.278 2.1817.888.4413 1.876.6638 2.968.6638z"/><path d="m271.645 8.02403c0 1.08909-.222 2.11057-.667 3.06437-.441.9557-1.047 1.7938-1.815 2.5146-.768.7207-1.66 1.2937-2.678 1.719-1.017.4253-2.103.6407-3.253.6407-1.122 0-2.169-.2154-3.145-.6407-.973-.4253-1.835-1.0001-2.59-1.719-.752-.719-1.342-1.5572-1.769-2.5146-.427-.9556-.641-1.97528-.641-3.06437 0-1.11578.214-2.16038.641-3.13202.427-.96808 1.017-1.82049 1.769-2.55723.755-.73496 1.617-1.30797 2.59-1.720832.976-.409299 2.023-.613948 3.145-.613948 1.152 0 2.236.204649 3.253.615728 1.018.412862 1.91.985872 2.678 1.720832s1.374 1.58737 1.815 2.55723c.445.96986.667 2.01268.667 3.13024zm-1.598 58.25387h-13.722v-45.7293h13.722z"/><path d="m290.413.261597v37.000603h2.038c.856 0 1.513-.1192 1.973-.3541.455-.2349.891-.662 1.304-1.2795l8.675-12.8769c.502-.7635 1.099-1.3222 1.792-1.6746.695-.3523 1.573-.5285 2.637-.5285h12.573l-11.867 16.2723c-.559.7652-1.172 1.4414-1.837 2.0287-.662.589-1.379 1.1175-2.145 1.5873 1.327 1.0001 2.48 2.3241 3.453 3.9684l12.926 21.8726h-12.395c-1.033 0-1.926-.169-2.678-.5072-.752-.3363-1.365-.9324-1.837-1.7849l-8.677-16.185c-.411-.7332-.84-1.2137-1.285-1.4326-.441-.2224-1.106-.3328-1.99-.3328h-2.657v20.2425h-13.724v-66.016303z"/><path d="m125.999 80.3026v2.2013h-4.343v12.1829h-2.687v-12.1829h-4.365v-2.2013z"/><path d="m134.478 89.0669v5.6181h-2.687v-14.3824h4.404c.986 0 1.828.1014 2.531.3043.703.2011 1.278.4841 1.728.8506.448.3649.779.8008.988 1.3062.209.509.313 1.0678.313 1.6764 0 .484-.07.9414-.215 1.372-.143.4307-.35.8222-.618 1.1728-.27.3523-.604.6602-.999.9271-.396.2634-.848.4787-1.352.6335.339.194.631.4698.877.8275l3.616 5.3102h-2.417c-.234 0-.431-.0445-.595-.1388-.164-.0925-.302-.226-.413-.3986l-3.037-4.6055c-.112-.1726-.237-.2936-.375-.3684-.136-.0729-.336-.1085-.602-.1085h-1.147zm0-1.9201h1.676c.507 0 .948-.0623 1.324-.1886.377-.1264.686-.3008.929-.5214.243-.2225.425-.4859.546-.7902.12-.3061.179-.6406.179-1.0036 0-.7297-.241-1.292-.725-1.6799-.485-.3933-1.221-.5891-2.212-.5891h-1.715v4.7728z"/><path d="m161.466 94.6868h-2.078c-.232 0-.423-.057-.573-.1744-.149-.1157-.257-.2598-.325-.4324l-1.078-2.9328h-5.981l-1.079 2.9328c-.052.153-.157.2918-.315.4182-.157.1245-.348.1868-.573.1868h-2.087l5.671-14.3824h2.746zm-9.346-5.4312h4.604l-1.756-4.7835c-.08-.2118-.169-.4627-.264-.7492-.098-.29-.193-.605-.286-.9396-.093.3346-.186.6513-.275.9432-.089.2918-.179.5481-.265.767z"/><path d="m163.842 80.3026h2.169c.232 0 .422.057.567.1709.146.1121.259.258.332.4377l3.393 8.7715c.112.2865.221.5997.325.9396.105.3417.202.7029.295 1.0784.153-.7617.341-1.4361.569-2.0198l3.386-8.7715c.059-.1548.166-.2918.32-.4182.152-.1245.341-.1886.568-.1886h2.167l-5.831 14.3824h-2.427z"/><path d="m192.542 80.3026v2.1301h-6.401v3.988h5.041v2.059h-5.041v4.0681h6.401v2.139h-9.106v-14.3842z"/><path d="m201.548 92.4784h5.781v2.2084h-8.466v-14.3842h2.685z"/></g><path d="m47.2551 64.219s.0018.0035.0054.0071l.0337.032c-.0124-.0142-.0249-.0267-.0391-.0391z" fill="#fff"/><path d="m159.286 29.8752c-.707-2.1603-1.749-3.9826-3.121-5.4685-1.372-1.4842-3.076-2.616-5.113-3.3972-2.038-.7777-4.37-1.1674-6.994-1.1674-1.417 0-2.843.1477-4.274.4413-1.433.2954-2.791.7492-4.073 1.3667-1.283.6175-2.478 1.4272-3.586 2.4256-1.108.9983-2.046 2.2031-2.812 3.616-.945-2.381-2.324-4.2852-4.14-5.7106-1.815-1.4254-4.109-2.139-6.885-2.139-1.327 0-2.546.1406-3.652.4182-1.108.2794-2.14.662-3.1 1.1478-.957.4858-1.852 1.0588-2.679 1.7191-.828.6602-1.624 1.3898-2.389 2.1835l-.754-2.4683c-.236-.7652-.641-1.3382-1.218-1.7208-.574-.3808-1.29-.5712-2.146-.5712h-13.5121c2.6638 2.6017 4.8863 5.6874 6.5121 9.1576 1.783 3.81 2.7746 7.8549 2.9496 12.0227.0376.6584.4127 8.307-1.0558 24.549h10.3282v-33.0749c.972-.9414 2.013-1.6906 3.119-2.2511 1.108-.557 2.28-.8364 3.522-.8364 2.006 0 3.526.5285 4.559 1.5873 1.033 1.0589 1.549 2.8954 1.549 5.5113v29.062h13.726v-29.062c0-2.292.611-4.0485 1.837-5.2675 1.224-1.219 2.767-1.8294 4.625-1.8294 4.074 0 6.111 2.3669 6.111 7.0987v29.062h13.724v-29.0638c.004-2.7334-.35-5.1803-1.058-7.3407z" fill="#353535"/><path d="m37.8952 56.3942c-4.5504-9.7235-3.6821-20.5984 1.3578-29.2381-.4841-.8649-1.038-1.6639-1.6686-2.3971-1.3275-1.5446-2.9586-2.7476-4.8917-3.6161-1.9349-.8666-4.1556-1.299-6.6622-1.299-1.4775 0-2.8406.1406-4.0948.4182-1.256.2794-2.4208.662-3.4982 1.1478-1.0791.4858-2.0885 1.0802-3.0318 1.7849-.9451.7047-1.8598 1.4717-2.746 2.2938l-.7968-2.6444c-.2358-.7652-.6414-1.3382-1.2166-1.719-.5753-.3826-1.29175-.5731-2.14752-.5731h-8.49878v45.7294h13.7245v-32.5927c1.2113-1.0873 2.4798-1.9539 3.8072-2.6017 1.3275-.646 2.7442-.9698 4.2503-.9698 2.0064 0 3.5267.6246 4.5594 1.8756 1.0344 1.2493 1.549 2.9897 1.549 5.223v29.062h13.7245v-3.8296c-1.4525-1.8632-2.7031-3.8812-3.7197-6.0541z" fill="#353535"/><path d="m47.2533 64.219.0089.0071-.0071-.0071z" fill="#efb000"/><path d="m95.3571 41.8766.0018.0569c-.143-3.6961-1.0112-7.4243-2.6799-10.9852-4.8774-10.4175-15.2467-16.541-26.0752-16.541-4.0681 0-8.1986.8649-12.1327 2.6889-14.3909 6.684-20.6154 23.7233-13.905 38.0559 1.6598 3.5431 3.9537 6.5897 6.6872 9.0686.0125.0125.0268.0249.0393.0374l-.0339-.032c.2572.2402 12.063 11.229 43.5372 30.4589 5.5027-36.7728 4.563-52.7995 4.5612-52.8084zm-21.1496 17.3703c-2.4458 1.1371-5.0203 1.6728-7.5555 1.6728-6.7622 0-13.2493-3.8208-16.29-10.3179-4.1806-8.9334-.2877-19.5876 8.6792-23.7518 2.4458-1.1354 5.0221-1.6746 7.5572-1.6746 6.7623 0 13.2476 3.8225 16.2883 10.3197 4.1842 8.9316.2894 19.5894-8.6792 23.7518z" fill="#efb000"/></svg>